<?xml version="1.0" encoding="UTF-8" standalone="no"?>
<!DOCTYPE svg PUBLIC "-//W3C//DTD SVG 1.1//EN"
 "http://www.w3.org/Graphics/SVG/1.1/DTD/svg11.dtd">
<!-- Generated by graphviz version 2.43.0 (0)
 -->
<!-- Title: G Pages: 1 -->
<svg width="856pt" height="198pt"
 viewBox="0.00 0.00 856.20 197.96" xmlns="http://www.w3.org/2000/svg" xmlns:xlink="http://www.w3.org/1999/xlink">
<g id="graph0" class="graph" transform="scale(1 1) rotate(0) translate(21.6 176.36)">
<title>G</title>
<polygon fill="#111111" stroke="transparent" points="-21.6,21.6 -21.6,-176.36 834.6,-176.36 834.6,21.6 -21.6,21.6"/>
<!-- otherJS/DOM.js -->
<g id="node1" class="node">
<title>otherJS/DOM.js</title>
<path fill="none" stroke="#ff6c60" d="M105.33,-116.6C105.33,-116.6 7.67,-116.6 7.67,-116.6 3.83,-116.6 0,-112.77 0,-108.94 0,-108.94 0,-101.27 0,-101.27 0,-97.44 3.83,-93.6 7.67,-93.6 7.67,-93.6 105.33,-93.6 105.33,-93.6 109.17,-93.6 113,-97.44 113,-101.27 113,-101.27 113,-108.94 113,-108.94 113,-112.77 109.17,-116.6 105.33,-116.6"/>
<text text-anchor="middle" x="56.5" y="-101.4" font-family="Arial" font-size="14.00" fill="#ff6c60">otherJS/DOM.js</text>
</g>
<!-- otherJS/default.js -->
<g id="node2" class="node">
<title>otherJS/default.js</title>
<path fill="none" stroke="#ff6c60" d="M633.33,-97.6C633.33,-97.6 527.67,-97.6 527.67,-97.6 523.83,-97.6 520,-93.77 520,-89.94 520,-89.94 520,-82.27 520,-82.27 520,-78.44 523.83,-74.6 527.67,-74.6 527.67,-74.6 633.33,-74.6 633.33,-74.6 637.17,-74.6 641,-78.44 641,-82.27 641,-82.27 641,-89.94 641,-89.94 641,-93.77 637.17,-97.6 633.33,-97.6"/>
<text text-anchor="middle" x="580.5" y="-82.4" font-family="Arial" font-size="14.00" fill="#ff6c60">otherJS/default.js</text>
</g>
<!-- otherJS/DOM.js&#45;&gt;otherJS/default.js -->
<g id="edge1" class="edge">
<title>otherJS/DOM.js&#45;&gt;otherJS/default.js</title>
<path fill="none" stroke="#757575" d="M113.22,-112.62C124.94,-115.2 137.3,-117.65 149,-119.1 296.76,-137.39 338.2,-147.27 484,-117.1 500.17,-113.76 517.04,-107.66 532.01,-101.64"/>
<polygon fill="#757575" stroke="#757575" points="533.64,-104.75 541.56,-97.72 530.98,-98.28 533.64,-104.75"/>
</g>
<!-- otherJS/modalEvents.js -->
<g id="node3" class="node">
<title>otherJS/modalEvents.js</title>
<path fill="none" stroke="#ff6c60" d="M300.33,-67.6C300.33,-67.6 156.67,-67.6 156.67,-67.6 152.83,-67.6 149,-63.77 149,-59.94 149,-59.94 149,-52.27 149,-52.27 149,-48.44 152.83,-44.6 156.67,-44.6 156.67,-44.6 300.33,-44.6 300.33,-44.6 304.17,-44.6 308,-48.44 308,-52.27 308,-52.27 308,-59.94 308,-59.94 308,-63.77 304.17,-67.6 300.33,-67.6"/>
<text text-anchor="middle" x="228.5" y="-52.4" font-family="Arial" font-size="14.00" fill="#ff6c60">otherJS/modalEvents.js</text>
</g>
<!-- otherJS/DOM.js&#45;&gt;otherJS/modalEvents.js -->
<g id="edge2" class="edge">
<title>otherJS/DOM.js&#45;&gt;otherJS/modalEvents.js</title>
<path fill="none" stroke="#757575" d="M80.78,-93.58C99.98,-86.52 128.28,-77.74 154.92,-70.34"/>
<polygon fill="#757575" stroke="#757575" points="155.92,-73.69 164.64,-67.68 154.07,-66.94 155.92,-73.69"/>
</g>
<!-- otherJS/nonDOM.js -->
<g id="node4" class="node">
<title>otherJS/nonDOM.js</title>
<path fill="none" stroke="#ff6c60" d="M805.33,-58.6C805.33,-58.6 684.67,-58.6 684.67,-58.6 680.83,-58.6 677,-54.77 677,-50.94 677,-50.94 677,-43.27 677,-43.27 677,-39.44 680.83,-35.6 684.67,-35.6 684.67,-35.6 805.33,-35.6 805.33,-35.6 809.17,-35.6 813,-39.44 813,-43.27 813,-43.27 813,-50.94 813,-50.94 813,-54.77 809.17,-58.6 805.33,-58.6"/>
<text text-anchor="middle" x="745" y="-43.4" font-family="Arial" font-size="14.00" fill="#ff6c60">otherJS/nonDOM.js</text>
</g>
<!-- otherJS/DOM.js&#45;&gt;otherJS/nonDOM.js -->
<g id="edge3" class="edge">
<title>otherJS/DOM.js&#45;&gt;otherJS/nonDOM.js</title>
<path fill="none" stroke="#757575" d="M67.63,-93.59C83.17,-76.9 114.71,-46.71 149,-35.1 337.18,28.62 578.38,-10.16 686.76,-33.41"/>
<polygon fill="#757575" stroke="#757575" points="686.32,-36.89 696.83,-35.6 687.81,-30.05 686.32,-36.89"/>
</g>
<!-- otherJS/tabEvents.js -->
<g id="node5" class="node">
<title>otherJS/tabEvents.js</title>
<path fill="none" stroke="#ff6c60" d="M476.33,-116.6C476.33,-116.6 351.67,-116.6 351.67,-116.6 347.83,-116.6 344,-112.77 344,-108.94 344,-108.94 344,-101.27 344,-101.27 344,-97.44 347.83,-93.6 351.67,-93.6 351.67,-93.6 476.33,-93.6 476.33,-93.6 480.17,-93.6 484,-97.44 484,-101.27 484,-101.27 484,-108.94 484,-108.94 484,-112.77 480.17,-116.6 476.33,-116.6"/>
<text text-anchor="middle" x="414" y="-101.4" font-family="Arial" font-size="14.00" fill="#ff6c60">otherJS/tabEvents.js</text>
</g>
<!-- otherJS/DOM.js&#45;&gt;otherJS/tabEvents.js -->
<g id="edge4" class="edge">
<title>otherJS/DOM.js&#45;&gt;otherJS/tabEvents.js</title>
<path fill="none" stroke="#757575" d="M113.05,-100.04C172.3,-98.04 266.67,-97.82 333.72,-99.37"/>
<polygon fill="#757575" stroke="#757575" points="333.74,-102.88 343.82,-99.63 333.91,-95.88 333.74,-102.88"/>
</g>
<!-- otherJS/default.js&#45;&gt;otherJS/DOM.js -->
<g id="edge5" class="edge">
<title>otherJS/default.js&#45;&gt;otherJS/DOM.js</title>
<path fill="none" stroke="#757575" d="M569.05,-97.68C551.94,-110.48 516.56,-128.37 484,-135.1 338.2,-165.27 296.76,-155.39 149,-137.1 125.96,-134.25 100.38,-127.51 82.14,-120.52"/>
<polygon fill="#757575" stroke="#757575" points="83.4,-117.26 72.82,-116.65 80.71,-123.72 83.4,-117.26"/>
</g>
<!-- otherJS/default.js&#45;&gt;otherJS/nonDOM.js -->
<g id="edge6" class="edge">
<title>otherJS/default.js&#45;&gt;otherJS/nonDOM.js</title>
<path fill="none" stroke="#757575" d="M608.33,-74.5C624.44,-69.5 645.83,-63.84 666.86,-58.87"/>
<polygon fill="#757575" stroke="#757575" points="667.84,-62.24 676.79,-56.57 666.26,-55.42 667.84,-62.24"/>
</g>
<!-- otherJS/modalEvents.js&#45;&gt;otherJS/DOM.js -->
<g id="edge7" class="edge">
<title>otherJS/modalEvents.js&#45;&gt;otherJS/DOM.js</title>
<path fill="none" stroke="#757575" d="M203.96,-67.73C183.07,-75.39 151.54,-85.06 123.08,-92.79"/>
<polygon fill="#757575" stroke="#757575" points="121.92,-89.48 113.16,-95.44 123.73,-96.24 121.92,-89.48"/>
</g>
<!-- otherJS/modalEvents.js&#45;&gt;otherJS/default.js -->
<g id="edge8" class="edge">
<title>otherJS/modalEvents.js&#45;&gt;otherJS/default.js</title>
<path fill="none" stroke="#757575" d="M308.05,-62.84C368.6,-68.03 451.57,-75.14 509.79,-80.13"/>
<polygon fill="#757575" stroke="#757575" points="509.73,-83.64 520,-81 510.33,-76.66 509.73,-83.64"/>
</g>
<!-- otherJS/modalEvents.js&#45;&gt;otherJS/nonDOM.js -->
<g id="edge9" class="edge">
<title>otherJS/modalEvents.js&#45;&gt;otherJS/nonDOM.js</title>
<path fill="none" stroke="#757575" d="M308.2,-54.73C405.43,-53.03 569.82,-50.15 666.5,-48.46"/>
<polygon fill="#757575" stroke="#757575" points="666.85,-51.95 676.79,-48.28 666.73,-44.95 666.85,-51.95"/>
</g>
<!-- otherJS/modalEvents.js&#45;&gt;otherJS/tabEvents.js -->
<g id="edge10" class="edge">
<title>otherJS/modalEvents.js&#45;&gt;otherJS/tabEvents.js</title>
<path fill="none" stroke="#757575" d="M297.05,-67.6C324.64,-74.47 355.38,-83.06 378.28,-90.41"/>
<polygon fill="#757575" stroke="#757575" points="377.3,-93.77 387.89,-93.58 379.49,-87.12 377.3,-93.77"/>
</g>
<!-- otherJS/nonDOM.js&#45;&gt;otherJS/default.js -->
<g id="edge11" class="edge">
<title>otherJS/nonDOM.js&#45;&gt;otherJS/default.js</title>
<path fill="none" stroke="#757575" d="M717.12,-58.72C699.06,-64.32 674.36,-70.75 651,-76.11"/>
<polygon fill="#757575" stroke="#757575" points="650.08,-72.73 641.09,-78.33 651.61,-79.56 650.08,-72.73"/>
</g>
<!-- otherJS/tabEvents.js&#45;&gt;otherJS/DOM.js -->
<g id="edge12" class="edge">
<title>otherJS/tabEvents.js&#45;&gt;otherJS/DOM.js</title>
<path fill="none" stroke="#757575" d="M343.82,-110.58C280,-112.31 185.91,-112.28 123.22,-110.48"/>
<polygon fill="#757575" stroke="#757575" points="123.15,-106.98 113.05,-110.17 122.93,-113.97 123.15,-106.98"/>
</g>
<!-- otherJS/tabEvents.js&#45;&gt;otherJS/default.js -->
<g id="edge13" class="edge">
<title>otherJS/tabEvents.js&#45;&gt;otherJS/default.js</title>
<path fill="none" stroke="#757575" d="M484.29,-97.1C492.71,-96.13 501.33,-95.13 509.76,-94.16"/>
<polygon fill="#757575" stroke="#757575" points="510.4,-97.61 519.93,-92.98 509.6,-90.65 510.4,-97.61"/>
</g>
<!-- otherJS/tabEvents.js&#45;&gt;otherJS/modalEvents.js -->
<g id="edge14" class="edge">
<title>otherJS/tabEvents.js&#45;&gt;otherJS/modalEvents.js</title>
<path fill="none" stroke="#757575" d="M345.15,-93.53C317.63,-86.67 287.02,-78.12 264.21,-70.79"/>
<polygon fill="#757575" stroke="#757575" points="265.22,-67.44 254.63,-67.63 263.03,-74.09 265.22,-67.44"/>
</g>
</g>
</svg>
