<?xml version="1.0" encoding="UTF-8" standalone="no"?>
<!DOCTYPE svg PUBLIC "-//W3C//DTD SVG 1.1//EN"
 "http://www.w3.org/Graphics/SVG/1.1/DTD/svg11.dtd">
<!-- Generated by graphviz version 2.43.0 (0)
 -->
<!-- Title: G Pages: 1 -->
<svg width="527pt" height="115pt"
 viewBox="0.00 0.00 527.20 115.20" xmlns="http://www.w3.org/2000/svg" xmlns:xlink="http://www.w3.org/1999/xlink">
<g id="graph0" class="graph" transform="scale(1 1) rotate(0) translate(21.6 93.6)">
<title>G</title>
<polygon fill="#111111" stroke="transparent" points="-21.6,21.6 -21.6,-93.6 505.6,-93.6 505.6,21.6 -21.6,21.6"/>
<!-- otherJS/DOM.js -->
<g id="node1" class="node">
<title>otherJS/DOM.js</title>
<path fill="none" stroke="#ff6c60" d="M105.33,-23C105.33,-23 7.67,-23 7.67,-23 3.83,-23 0,-19.17 0,-15.33 0,-15.33 0,-7.67 0,-7.67 0,-3.83 3.83,0 7.67,0 7.67,0 105.33,0 105.33,0 109.17,0 113,-3.83 113,-7.67 113,-7.67 113,-15.33 113,-15.33 113,-19.17 109.17,-23 105.33,-23"/>
<text text-anchor="middle" x="56.5" y="-7.8" font-family="Arial" font-size="14.00" fill="#ff6c60">otherJS/DOM.js</text>
</g>
<!-- otherJS/modalEvents.js -->
<g id="node2" class="node">
<title>otherJS/modalEvents.js</title>
<path fill="none" stroke="#ff6c60" d="M300.33,-72C300.33,-72 156.67,-72 156.67,-72 152.83,-72 149,-68.17 149,-64.33 149,-64.33 149,-56.67 149,-56.67 149,-52.83 152.83,-49 156.67,-49 156.67,-49 300.33,-49 300.33,-49 304.17,-49 308,-52.83 308,-56.67 308,-56.67 308,-64.33 308,-64.33 308,-68.17 304.17,-72 300.33,-72"/>
<text text-anchor="middle" x="228.5" y="-56.8" font-family="Arial" font-size="14.00" fill="#ff6c60">otherJS/modalEvents.js</text>
</g>
<!-- otherJS/DOM.js&#45;&gt;otherJS/modalEvents.js -->
<g id="edge1" class="edge">
<title>otherJS/DOM.js&#45;&gt;otherJS/modalEvents.js</title>
<path fill="none" stroke="#757575" d="M97.79,-23.11C121.71,-30.01 152.24,-38.81 177.67,-46.14"/>
<polygon fill="#757575" stroke="#757575" points="176.92,-49.56 187.5,-48.97 178.86,-42.84 176.92,-49.56"/>
</g>
<!-- otherJS/tabEvents.js -->
<g id="node3" class="node">
<title>otherJS/tabEvents.js</title>
<path fill="none" stroke="#ff6c60" d="M476.33,-23C476.33,-23 351.67,-23 351.67,-23 347.83,-23 344,-19.17 344,-15.33 344,-15.33 344,-7.67 344,-7.67 344,-3.83 347.83,0 351.67,0 351.67,0 476.33,0 476.33,0 480.17,0 484,-3.83 484,-7.67 484,-7.67 484,-15.33 484,-15.33 484,-19.17 480.17,-23 476.33,-23"/>
<text text-anchor="middle" x="414" y="-7.8" font-family="Arial" font-size="14.00" fill="#ff6c60">otherJS/tabEvents.js</text>
</g>
<!-- otherJS/DOM.js&#45;&gt;otherJS/tabEvents.js -->
<g id="edge2" class="edge">
<title>otherJS/DOM.js&#45;&gt;otherJS/tabEvents.js</title>
<path fill="none" stroke="#757575" d="M113.05,-6.44C172.3,-4.44 266.67,-4.22 333.72,-5.77"/>
<polygon fill="#757575" stroke="#757575" points="333.74,-9.27 343.82,-6.02 333.91,-2.27 333.74,-9.27"/>
</g>
<!-- otherJS/modalEvents.js&#45;&gt;otherJS/tabEvents.js -->
<g id="edge3" class="edge">
<title>otherJS/modalEvents.js&#45;&gt;otherJS/tabEvents.js</title>
<path fill="none" stroke="#757575" d="M272.99,-48.89C299.04,-41.93 332.35,-33.04 359.94,-25.67"/>
<polygon fill="#757575" stroke="#757575" points="361.07,-28.99 369.83,-23.03 359.26,-22.23 361.07,-28.99"/>
</g>
<!-- otherJS/tabEvents.js&#45;&gt;otherJS/DOM.js -->
<g id="edge4" class="edge">
<title>otherJS/tabEvents.js&#45;&gt;otherJS/DOM.js</title>
<path fill="none" stroke="#757575" d="M343.82,-16.98C280,-18.71 185.91,-18.67 123.22,-16.88"/>
<polygon fill="#757575" stroke="#757575" points="123.15,-13.38 113.05,-16.56 122.93,-20.37 123.15,-13.38"/>
</g>
</g>
</svg>
