<?xml version="1.0" encoding="UTF-8" standalone="no"?>
<!DOCTYPE svg PUBLIC "-//W3C//DTD SVG 1.1//EN"
 "http://www.w3.org/Graphics/SVG/1.1/DTD/svg11.dtd">
<!-- Generated by graphviz version 2.43.0 (0)
 -->
<!-- Title: G Pages: 1 -->
<svg width="527pt" height="115pt"
 viewBox="0.00 0.00 527.20 115.20" xmlns="http://www.w3.org/2000/svg" xmlns:xlink="http://www.w3.org/1999/xlink">
<g id="graph0" class="graph" transform="scale(1 1) rotate(0) translate(21.6 93.6)">
<title>G</title>
<polygon fill="#111111" stroke="transparent" points="-21.6,21.6 -21.6,-93.6 505.6,-93.6 505.6,21.6 -21.6,21.6"/>
<!-- otherJS/DOM.js -->
<g id="node1" class="node">
<title>otherJS/DOM.js</title>
<path fill="none" stroke="#ff6c60" d="M105.33,-23C105.33,-23 7.67,-23 7.67,-23 3.83,-23 0,-19.17 0,-15.33 0,-15.33 0,-7.67 0,-7.67 0,-3.83 3.83,0 7.67,0 7.67,0 105.33,0 105.33,0 109.17,0 113,-3.83 113,-7.67 113,-7.67 113,-15.33 113,-15.33 113,-19.17 109.17,-23 105.33,-23"/>
<text text-anchor="middle" x="56.5" y="-7.8" font-family="Arial" font-size="14.00" fill="#ff6c60">otherJS/DOM.js</text>
</g>
<!-- otherJS/modalEvents.js -->
<g id="node2" class="node">
<title>otherJS/modalEvents.js</title>
<path fill="none" stroke="#ff6c60" d="M300.33,-72C300.33,-72 156.67,-72 156.67,-72 152.83,-72 149,-68.17 149,-64.33 149,-64.33 149,-56.67 149,-56.67 149,-52.83 152.83,-49 156.67,-49 156.67,-49 300.33,-49 300.33,-49 304.17,-49 308,-52.83 308,-56.67 308,-56.67 308,-64.33 308,-64.33 308,-68.17 304.17,-72 300.33,-72"/>
<text text-anchor="middle" x="228.5" y="-56.8" font-family="Arial" font-size="14.00" fill="#ff6c60">otherJS/modalEvents.js</text>
</g>
<!-- otherJS/DOM.js&#45;&gt;otherJS/modalEvents.js -->
<g id="edge1" class="edge">
<title>otherJS/DOM.js&#45;&gt;otherJS/modalEvents.js</title>
<path fill="none" stroke="#757575" d="M97.79,-23.11C121.71,-30.01 152.24,-38.81 177.67,-46.14"/>
<polygon fill="#757575" stroke="#757575" points="176.92,-49.56 187.5,-48.97 178.86,-42.84 176.92,-49.56"/>
</g>
<!-- otherJS/tabEvents.js -->
<g id="node3" class="node">
<title>otherJS/tabEvents.js</title>
<path fill="none" stroke="#ff6c60" d="M476.33,-47C476.33,-47 351.67,-47 351.67,-47 347.83,-47 344,-43.17 344,-39.33 344,-39.33 344,-31.67 344,-31.67 344,-27.83 347.83,-24 351.67,-24 351.67,-24 476.33,-24 476.33,-24 480.17,-24 484,-27.83 484,-31.67 484,-31.67 484,-39.33 484,-39.33 484,-43.17 480.17,-47 476.33,-47"/>
<text text-anchor="middle" x="414" y="-31.8" font-family="Arial" font-size="14.00" fill="#ff6c60">otherJS/tabEvents.js</text>
</g>
<!-- otherJS/DOM.js&#45;&gt;otherJS/tabEvents.js -->
<g id="edge2" class="edge">
<title>otherJS/DOM.js&#45;&gt;otherJS/tabEvents.js</title>
<path fill="none" stroke="#757575" d="M113.05,-10.19C172.3,-12.19 266.67,-18.34 333.72,-24.42"/>
<polygon fill="#757575" stroke="#757575" points="333.54,-27.92 343.82,-25.35 334.19,-20.95 333.54,-27.92"/>
</g>
<!-- otherJS/modalEvents.js&#45;&gt;otherJS/tabEvents.js -->
<g id="edge3" class="edge">
<title>otherJS/modalEvents.js&#45;&gt;otherJS/tabEvents.js</title>
<path fill="none" stroke="#757575" d="M271.6,-48.98C290.05,-45.67 312.34,-42.33 333.7,-39.61"/>
<polygon fill="#757575" stroke="#757575" points="334.27,-43.07 343.77,-38.37 333.41,-36.12 334.27,-43.07"/>
</g>
<!-- otherJS/tabEvents.js&#45;&gt;otherJS/DOM.js -->
<g id="edge4" class="edge">
<title>otherJS/tabEvents.js&#45;&gt;otherJS/DOM.js</title>
<path fill="none" stroke="#757575" d="M343.82,-36.31C280,-33.73 185.91,-27.34 123.22,-21.32"/>
<polygon fill="#757575" stroke="#757575" points="123.34,-17.81 113.05,-20.31 122.66,-24.78 123.34,-17.81"/>
</g>
<!-- otherJS/tabEvents.js&#45;&gt;otherJS/modalEvents.js -->
<g id="edge5" class="edge">
<title>otherJS/tabEvents.js&#45;&gt;otherJS/modalEvents.js</title>
<path fill="none" stroke="#757575" d="M370.96,-47.01C355.14,-49.85 336.5,-52.71 318.04,-55.18"/>
<polygon fill="#757575" stroke="#757575" points="317.58,-51.71 308.12,-56.48 318.49,-58.65 317.58,-51.71"/>
</g>
</g>
</svg>
