<?xml version="1.0" encoding="UTF-8" standalone="no"?>
<!DOCTYPE svg PUBLIC "-//W3C//DTD SVG 1.1//EN"
 "http://www.w3.org/Graphics/SVG/1.1/DTD/svg11.dtd">
<!-- Generated by graphviz version 2.43.0 (0)
 -->
<!-- Title: G Pages: 1 -->
<svg width="856pt" height="174pt"
 viewBox="0.00 0.00 856.20 173.79" xmlns="http://www.w3.org/2000/svg" xmlns:xlink="http://www.w3.org/1999/xlink">
<g id="graph0" class="graph" transform="scale(1 1) rotate(0) translate(21.6 152.19)">
<title>G</title>
<polygon fill="#111111" stroke="transparent" points="-21.6,21.6 -21.6,-152.19 834.6,-152.19 834.6,21.6 -21.6,21.6"/>
<!-- otherJS/DOM.js -->
<g id="node1" class="node">
<title>otherJS/DOM.js</title>
<path fill="none" stroke="#ff6c60" d="M105.33,-70.93C105.33,-70.93 7.67,-70.93 7.67,-70.93 3.83,-70.93 0,-67.1 0,-63.27 0,-63.27 0,-55.6 0,-55.6 0,-51.77 3.83,-47.93 7.67,-47.93 7.67,-47.93 105.33,-47.93 105.33,-47.93 109.17,-47.93 113,-51.77 113,-55.6 113,-55.6 113,-63.27 113,-63.27 113,-67.1 109.17,-70.93 105.33,-70.93"/>
<text text-anchor="middle" x="56.5" y="-55.73" font-family="Arial" font-size="14.00" fill="#ff6c60">otherJS/DOM.js</text>
</g>
<!-- otherJS/default.js -->
<g id="node2" class="node">
<title>otherJS/default.js</title>
<path fill="none" stroke="#ff6c60" d="M633.33,-84.93C633.33,-84.93 527.67,-84.93 527.67,-84.93 523.83,-84.93 520,-81.1 520,-77.27 520,-77.27 520,-69.6 520,-69.6 520,-65.77 523.83,-61.93 527.67,-61.93 527.67,-61.93 633.33,-61.93 633.33,-61.93 637.17,-61.93 641,-65.77 641,-69.6 641,-69.6 641,-77.27 641,-77.27 641,-81.1 637.17,-84.93 633.33,-84.93"/>
<text text-anchor="middle" x="580.5" y="-69.73" font-family="Arial" font-size="14.00" fill="#ff6c60">otherJS/default.js</text>
</g>
<!-- otherJS/DOM.js&#45;&gt;otherJS/default.js -->
<g id="edge1" class="edge">
<title>otherJS/DOM.js&#45;&gt;otherJS/default.js</title>
<path fill="none" stroke="#757575" d="M90.3,-47.92C162.76,-24.24 341.35,24.49 484,-15.43 511.61,-23.16 539.18,-41.3 557.54,-55.25"/>
<polygon fill="#757575" stroke="#757575" points="555.75,-58.29 565.78,-61.7 560.06,-52.78 555.75,-58.29"/>
</g>
<!-- otherJS/modalEvents.js -->
<g id="node3" class="node">
<title>otherJS/modalEvents.js</title>
<path fill="none" stroke="#ff6c60" d="M300.33,-95.93C300.33,-95.93 156.67,-95.93 156.67,-95.93 152.83,-95.93 149,-92.1 149,-88.27 149,-88.27 149,-80.6 149,-80.6 149,-76.77 152.83,-72.93 156.67,-72.93 156.67,-72.93 300.33,-72.93 300.33,-72.93 304.17,-72.93 308,-76.77 308,-80.6 308,-80.6 308,-88.27 308,-88.27 308,-92.1 304.17,-95.93 300.33,-95.93"/>
<text text-anchor="middle" x="228.5" y="-80.73" font-family="Arial" font-size="14.00" fill="#ff6c60">otherJS/modalEvents.js</text>
</g>
<!-- otherJS/DOM.js&#45;&gt;otherJS/modalEvents.js -->
<g id="edge2" class="edge">
<title>otherJS/DOM.js&#45;&gt;otherJS/modalEvents.js</title>
<path fill="none" stroke="#757575" d="M113.16,-61.24C134.21,-63.78 157.98,-67.34 178.38,-71.03"/>
<polygon fill="#757575" stroke="#757575" points="177.93,-74.5 188.4,-72.9 179.21,-67.62 177.93,-74.5"/>
</g>
<!-- otherJS/nonDOM.js -->
<g id="node4" class="node">
<title>otherJS/nonDOM.js</title>
<path fill="none" stroke="#ff6c60" d="M805.33,-104.93C805.33,-104.93 684.67,-104.93 684.67,-104.93 680.83,-104.93 677,-101.1 677,-97.27 677,-97.27 677,-89.6 677,-89.6 677,-85.77 680.83,-81.93 684.67,-81.93 684.67,-81.93 805.33,-81.93 805.33,-81.93 809.17,-81.93 813,-85.77 813,-89.6 813,-89.6 813,-97.27 813,-97.27 813,-101.1 809.17,-104.93 805.33,-104.93"/>
<text text-anchor="middle" x="745" y="-89.73" font-family="Arial" font-size="14.00" fill="#ff6c60">otherJS/nonDOM.js</text>
</g>
<!-- otherJS/DOM.js&#45;&gt;otherJS/nonDOM.js -->
<g id="edge3" class="edge">
<title>otherJS/DOM.js&#45;&gt;otherJS/nonDOM.js</title>
<path fill="none" stroke="#757575" d="M74.46,-70.95C92.16,-82.23 121.18,-98.68 149,-105.43 333.2,-150.18 558.97,-124.63 672.13,-106.56"/>
<polygon fill="#757575" stroke="#757575" points="672.75,-110 682.06,-104.94 671.63,-103.09 672.75,-110"/>
</g>
<!-- otherJS/tabEvents.js -->
<g id="node5" class="node">
<title>otherJS/tabEvents.js</title>
<path fill="none" stroke="#ff6c60" d="M476.33,-46.93C476.33,-46.93 351.67,-46.93 351.67,-46.93 347.83,-46.93 344,-43.1 344,-39.27 344,-39.27 344,-31.6 344,-31.6 344,-27.77 347.83,-23.93 351.67,-23.93 351.67,-23.93 476.33,-23.93 476.33,-23.93 480.17,-23.93 484,-27.77 484,-31.6 484,-31.6 484,-39.27 484,-39.27 484,-43.1 480.17,-46.93 476.33,-46.93"/>
<text text-anchor="middle" x="414" y="-31.73" font-family="Arial" font-size="14.00" fill="#ff6c60">otherJS/tabEvents.js</text>
</g>
<!-- otherJS/DOM.js&#45;&gt;otherJS/tabEvents.js -->
<g id="edge4" class="edge">
<title>otherJS/DOM.js&#45;&gt;otherJS/tabEvents.js</title>
<path fill="none" stroke="#757575" d="M113.05,-50.62C172.3,-44.62 266.67,-38.03 333.72,-35.06"/>
<polygon fill="#757575" stroke="#757575" points="333.98,-38.55 343.82,-34.63 333.68,-31.56 333.98,-38.55"/>
</g>
<!-- otherJS/default.js&#45;&gt;otherJS/nonDOM.js -->
<g id="edge5" class="edge">
<title>otherJS/default.js&#45;&gt;otherJS/nonDOM.js</title>
<path fill="none" stroke="#757575" d="M641.09,-74.24C656.99,-75.87 674.08,-78.01 689.68,-80.34"/>
<polygon fill="#757575" stroke="#757575" points="689.27,-83.82 699.69,-81.89 690.35,-76.9 689.27,-83.82"/>
</g>
<!-- otherJS/modalEvents.js&#45;&gt;otherJS/DOM.js -->
<g id="edge6" class="edge">
<title>otherJS/modalEvents.js&#45;&gt;otherJS/DOM.js</title>
<path fill="none" stroke="#757575" d="M148.78,-79.59C134.31,-77.54 119.6,-75.19 106.34,-72.79"/>
<polygon fill="#757575" stroke="#757575" points="106.97,-69.35 96.5,-70.95 105.69,-76.23 106.97,-69.35"/>
</g>
<!-- otherJS/modalEvents.js&#45;&gt;otherJS/default.js -->
<g id="edge7" class="edge">
<title>otherJS/modalEvents.js&#45;&gt;otherJS/default.js</title>
<path fill="none" stroke="#757575" d="M308.05,-81.97C368.6,-80.06 451.57,-77.46 509.79,-75.63"/>
<polygon fill="#757575" stroke="#757575" points="510.11,-79.12 520,-75.3 509.89,-72.12 510.11,-79.12"/>
</g>
<!-- otherJS/modalEvents.js&#45;&gt;otherJS/nonDOM.js -->
<g id="edge8" class="edge">
<title>otherJS/modalEvents.js&#45;&gt;otherJS/nonDOM.js</title>
<path fill="none" stroke="#757575" d="M308.31,-90.55C320.26,-91.3 332.45,-91.97 344,-92.43 456.12,-96.98 586.07,-96.19 666.67,-94.98"/>
<polygon fill="#757575" stroke="#757575" points="666.79,-98.48 676.73,-94.83 666.68,-91.48 666.79,-98.48"/>
</g>
<!-- otherJS/modalEvents.js&#45;&gt;otherJS/tabEvents.js -->
<g id="edge9" class="edge">
<title>otherJS/modalEvents.js&#45;&gt;otherJS/tabEvents.js</title>
<path fill="none" stroke="#757575" d="M254.63,-72.91C275.53,-65.79 306.44,-56.92 335.41,-49.47"/>
<polygon fill="#757575" stroke="#757575" points="336.31,-52.86 345.15,-47.01 334.6,-46.07 336.31,-52.86"/>
</g>
<!-- otherJS/nonDOM.js&#45;&gt;otherJS/default.js -->
<g id="edge10" class="edge">
<title>otherJS/nonDOM.js&#45;&gt;otherJS/default.js</title>
<path fill="none" stroke="#757575" d="M676.78,-91.82C663.24,-90.33 649.16,-88.52 636.12,-86.57"/>
<polygon fill="#757575" stroke="#757575" points="636.32,-83.06 625.9,-84.99 635.25,-89.98 636.32,-83.06"/>
</g>
<!-- otherJS/tabEvents.js&#45;&gt;otherJS/DOM.js -->
<g id="edge11" class="edge">
<title>otherJS/tabEvents.js&#45;&gt;otherJS/DOM.js</title>
<path fill="none" stroke="#757575" d="M343.82,-45.58C280,-51.62 185.91,-57.94 123.22,-60.38"/>
<polygon fill="#757575" stroke="#757575" points="122.91,-56.89 113.05,-60.75 123.17,-63.88 122.91,-56.89"/>
</g>
<!-- otherJS/tabEvents.js&#45;&gt;otherJS/default.js -->
<g id="edge12" class="edge">
<title>otherJS/tabEvents.js&#45;&gt;otherJS/default.js</title>
<path fill="none" stroke="#757575" d="M464.8,-46.94C482.12,-50.94 501.71,-55.47 519.75,-59.63"/>
<polygon fill="#757575" stroke="#757575" points="519.05,-63.06 529.58,-61.9 520.63,-56.24 519.05,-63.06"/>
</g>
<!-- otherJS/tabEvents.js&#45;&gt;otherJS/modalEvents.js -->
<g id="edge13" class="edge">
<title>otherJS/tabEvents.js&#45;&gt;otherJS/modalEvents.js</title>
<path fill="none" stroke="#757575" d="M387.89,-46.96C366.92,-54.1 335.87,-63.01 306.81,-70.47"/>
<polygon fill="#757575" stroke="#757575" points="305.88,-67.09 297.05,-72.93 307.6,-73.88 305.88,-67.09"/>
</g>
</g>
</svg>
