<?xml version="1.0" encoding="UTF-8" standalone="no"?>
<!DOCTYPE svg PUBLIC "-//W3C//DTD SVG 1.1//EN"
 "http://www.w3.org/Graphics/SVG/1.1/DTD/svg11.dtd">
<!-- Generated by graphviz version 2.43.0 (0)
 -->
<!-- Title: G Pages: 1 -->
<svg width="527pt" height="91pt"
 viewBox="0.00 0.00 527.20 91.20" xmlns="http://www.w3.org/2000/svg" xmlns:xlink="http://www.w3.org/1999/xlink">
<g id="graph0" class="graph" transform="scale(1 1) rotate(0) translate(21.6 69.6)">
<title>G</title>
<polygon fill="#111111" stroke="transparent" points="-21.6,21.6 -21.6,-69.6 505.6,-69.6 505.6,21.6 -21.6,21.6"/>
<!-- otherJS/DOM.js -->
<g id="node1" class="node">
<title>otherJS/DOM.js</title>
<path fill="none" stroke="#ff6c60" d="M105.33,-23C105.33,-23 7.67,-23 7.67,-23 3.83,-23 0,-19.17 0,-15.33 0,-15.33 0,-7.67 0,-7.67 0,-3.83 3.83,0 7.67,0 7.67,0 105.33,0 105.33,0 109.17,0 113,-3.83 113,-7.67 113,-7.67 113,-15.33 113,-15.33 113,-19.17 109.17,-23 105.33,-23"/>
<text text-anchor="middle" x="56.5" y="-7.8" font-family="Arial" font-size="14.00" fill="#ff6c60">otherJS/DOM.js</text>
</g>
<!-- otherJS/modalEvents.js -->
<g id="node2" class="node">
<title>otherJS/modalEvents.js</title>
<path fill="none" stroke="#ff6c60" d="M300.33,-48C300.33,-48 156.67,-48 156.67,-48 152.83,-48 149,-44.17 149,-40.33 149,-40.33 149,-32.67 149,-32.67 149,-28.83 152.83,-25 156.67,-25 156.67,-25 300.33,-25 300.33,-25 304.17,-25 308,-28.83 308,-32.67 308,-32.67 308,-40.33 308,-40.33 308,-44.17 304.17,-48 300.33,-48"/>
<text text-anchor="middle" x="228.5" y="-32.8" font-family="Arial" font-size="14.00" fill="#ff6c60">otherJS/modalEvents.js</text>
</g>
<!-- otherJS/DOM.js&#45;&gt;otherJS/modalEvents.js -->
<g id="edge1" class="edge">
<title>otherJS/DOM.js&#45;&gt;otherJS/modalEvents.js</title>
<path fill="none" stroke="#757575" d="M113.16,-13.31C134.21,-15.85 157.98,-19.41 178.38,-23.09"/>
<polygon fill="#757575" stroke="#757575" points="177.93,-26.57 188.4,-24.96 179.21,-19.69 177.93,-26.57"/>
</g>
<!-- otherJS/tabEvents.js -->
<g id="node3" class="node">
<title>otherJS/tabEvents.js</title>
<path fill="none" stroke="#ff6c60" d="M476.33,-23C476.33,-23 351.67,-23 351.67,-23 347.83,-23 344,-19.17 344,-15.33 344,-15.33 344,-7.67 344,-7.67 344,-3.83 347.83,0 351.67,0 351.67,0 476.33,0 476.33,0 480.17,0 484,-3.83 484,-7.67 484,-7.67 484,-15.33 484,-15.33 484,-19.17 480.17,-23 476.33,-23"/>
<text text-anchor="middle" x="414" y="-7.8" font-family="Arial" font-size="14.00" fill="#ff6c60">otherJS/tabEvents.js</text>
</g>
<!-- otherJS/DOM.js&#45;&gt;otherJS/tabEvents.js -->
<g id="edge2" class="edge">
<title>otherJS/DOM.js&#45;&gt;otherJS/tabEvents.js</title>
<path fill="none" stroke="#757575" d="M113.05,-6.44C172.3,-4.44 266.67,-4.22 333.72,-5.77"/>
<polygon fill="#757575" stroke="#757575" points="333.74,-9.27 343.82,-6.02 333.91,-2.27 333.74,-9.27"/>
</g>
<!-- otherJS/modalEvents.js&#45;&gt;otherJS/DOM.js -->
<g id="edge3" class="edge">
<title>otherJS/modalEvents.js&#45;&gt;otherJS/DOM.js</title>
<path fill="none" stroke="#757575" d="M148.78,-31.66C134.31,-29.61 119.6,-27.26 106.34,-24.86"/>
<polygon fill="#757575" stroke="#757575" points="106.97,-21.42 96.5,-23.02 105.69,-28.3 106.97,-21.42"/>
</g>
<!-- otherJS/modalEvents.js&#45;&gt;otherJS/tabEvents.js -->
<g id="edge4" class="edge">
<title>otherJS/modalEvents.js&#45;&gt;otherJS/tabEvents.js</title>
<path fill="none" stroke="#757575" d="M271.6,-24.98C290.05,-21.67 312.34,-18.33 333.7,-15.61"/>
<polygon fill="#757575" stroke="#757575" points="334.27,-19.07 343.77,-14.37 333.41,-12.12 334.27,-19.07"/>
</g>
<!-- otherJS/tabEvents.js&#45;&gt;otherJS/DOM.js -->
<g id="edge5" class="edge">
<title>otherJS/tabEvents.js&#45;&gt;otherJS/DOM.js</title>
<path fill="none" stroke="#757575" d="M343.82,-16.98C280,-18.71 185.91,-18.67 123.22,-16.88"/>
<polygon fill="#757575" stroke="#757575" points="123.15,-13.38 113.05,-16.56 122.93,-20.37 123.15,-13.38"/>
</g>
<!-- otherJS/tabEvents.js&#45;&gt;otherJS/modalEvents.js -->
<g id="edge6" class="edge">
<title>otherJS/tabEvents.js&#45;&gt;otherJS/modalEvents.js</title>
<path fill="none" stroke="#757575" d="M370.96,-23.01C355.14,-25.85 336.5,-28.71 318.04,-31.18"/>
<polygon fill="#757575" stroke="#757575" points="317.58,-27.71 308.12,-32.48 318.49,-34.65 317.58,-27.71"/>
</g>
</g>
</svg>
