<?xml version="1.0" encoding="UTF-8" standalone="no"?>
<!DOCTYPE svg PUBLIC "-//W3C//DTD SVG 1.1//EN"
 "http://www.w3.org/Graphics/SVG/1.1/DTD/svg11.dtd">
<!-- Generated by graphviz version 2.43.0 (0)
 -->
<!-- Title: G Pages: 1 -->
<svg width="966pt" height="200pt"
 viewBox="0.00 0.00 966.20 199.86" xmlns="http://www.w3.org/2000/svg" xmlns:xlink="http://www.w3.org/1999/xlink">
<g id="graph0" class="graph" transform="scale(1 1) rotate(0) translate(21.6 178.26)">
<title>G</title>
<polygon fill="#111111" stroke="transparent" points="-21.6,21.6 -21.6,-178.26 944.6,-178.26 944.6,21.6 -21.6,21.6"/>
<!-- src/otherJS/DOM.js -->
<g id="node1" class="node">
<title>src/otherJS/DOM.js</title>
<path fill="none" stroke="#ff6c60" d="M127.33,-118.07C127.33,-118.07 7.67,-118.07 7.67,-118.07 3.83,-118.07 0,-114.24 0,-110.41 0,-110.41 0,-102.74 0,-102.74 0,-98.91 3.83,-95.07 7.67,-95.07 7.67,-95.07 127.33,-95.07 127.33,-95.07 131.17,-95.07 135,-98.91 135,-102.74 135,-102.74 135,-110.41 135,-110.41 135,-114.24 131.17,-118.07 127.33,-118.07"/>
<text text-anchor="middle" x="67.5" y="-102.87" font-family="Arial" font-size="14.00" fill="#ff6c60">src/otherJS/DOM.js</text>
</g>
<!-- src/otherJS/default.js -->
<g id="node2" class="node">
<title>src/otherJS/default.js</title>
<path fill="none" stroke="#ff6c60" d="M721.33,-99.07C721.33,-99.07 593.67,-99.07 593.67,-99.07 589.83,-99.07 586,-95.24 586,-91.41 586,-91.41 586,-83.74 586,-83.74 586,-79.91 589.83,-76.07 593.67,-76.07 593.67,-76.07 721.33,-76.07 721.33,-76.07 725.17,-76.07 729,-79.91 729,-83.74 729,-83.74 729,-91.41 729,-91.41 729,-95.24 725.17,-99.07 721.33,-99.07"/>
<text text-anchor="middle" x="657.5" y="-83.87" font-family="Arial" font-size="14.00" fill="#ff6c60">src/otherJS/default.js</text>
</g>
<!-- src/otherJS/DOM.js&#45;&gt;src/otherJS/default.js -->
<g id="edge1" class="edge">
<title>src/otherJS/DOM.js&#45;&gt;src/otherJS/default.js</title>
<path fill="none" stroke="#757575" d="M135.13,-114.9C147,-117.18 159.31,-119.28 171,-120.57 338.42,-139.13 384.42,-149.51 550,-118.57 568.26,-115.16 587.47,-108.86 604.48,-102.7"/>
<polygon fill="#757575" stroke="#757575" points="606.04,-105.85 614.21,-99.11 603.62,-99.28 606.04,-105.85"/>
</g>
<!-- src/otherJS/modalEvents.js -->
<g id="node3" class="node">
<title>src/otherJS/modalEvents.js</title>
<path fill="none" stroke="#ff6c60" d="M344.33,-69.07C344.33,-69.07 178.67,-69.07 178.67,-69.07 174.83,-69.07 171,-65.24 171,-61.41 171,-61.41 171,-53.74 171,-53.74 171,-49.91 174.83,-46.07 178.67,-46.07 178.67,-46.07 344.33,-46.07 344.33,-46.07 348.17,-46.07 352,-49.91 352,-53.74 352,-53.74 352,-61.41 352,-61.41 352,-65.24 348.17,-69.07 344.33,-69.07"/>
<text text-anchor="middle" x="261.5" y="-53.87" font-family="Arial" font-size="14.00" fill="#ff6c60">src/otherJS/modalEvents.js</text>
</g>
<!-- src/otherJS/DOM.js&#45;&gt;src/otherJS/modalEvents.js -->
<g id="edge2" class="edge">
<title>src/otherJS/DOM.js&#45;&gt;src/otherJS/modalEvents.js</title>
<path fill="none" stroke="#757575" d="M94.79,-95.05C116.76,-87.9 149.28,-78.98 179.72,-71.52"/>
<polygon fill="#757575" stroke="#757575" points="180.61,-74.9 189.51,-69.15 178.96,-68.1 180.61,-74.9"/>
</g>
<!-- src/otherJS/nonDOM.js -->
<g id="node4" class="node">
<title>src/otherJS/nonDOM.js</title>
<path fill="none" stroke="#ff6c60" d="M915.33,-60.07C915.33,-60.07 772.67,-60.07 772.67,-60.07 768.83,-60.07 765,-56.24 765,-52.41 765,-52.41 765,-44.74 765,-44.74 765,-40.91 768.83,-37.07 772.67,-37.07 772.67,-37.07 915.33,-37.07 915.33,-37.07 919.17,-37.07 923,-40.91 923,-44.74 923,-44.74 923,-52.41 923,-52.41 923,-56.24 919.17,-60.07 915.33,-60.07"/>
<text text-anchor="middle" x="844" y="-44.87" font-family="Arial" font-size="14.00" fill="#ff6c60">src/otherJS/nonDOM.js</text>
</g>
<!-- src/otherJS/DOM.js&#45;&gt;src/otherJS/nonDOM.js -->
<g id="edge3" class="edge">
<title>src/otherJS/DOM.js&#45;&gt;src/otherJS/nonDOM.js</title>
<path fill="none" stroke="#757575" d="M80.14,-95.03C97.93,-78.31 133.73,-48.09 171,-36.57 387.12,30.18 661.26,-11.04 781.62,-34.99"/>
<polygon fill="#757575" stroke="#757575" points="781.26,-38.49 791.75,-37.04 782.64,-31.63 781.26,-38.49"/>
</g>
<!-- src/otherJS/tabEvents.js -->
<g id="node5" class="node">
<title>src/otherJS/tabEvents.js</title>
<path fill="none" stroke="#ff6c60" d="M542.33,-118.07C542.33,-118.07 395.67,-118.07 395.67,-118.07 391.83,-118.07 388,-114.24 388,-110.41 388,-110.41 388,-102.74 388,-102.74 388,-98.91 391.83,-95.07 395.67,-95.07 395.67,-95.07 542.33,-95.07 542.33,-95.07 546.17,-95.07 550,-98.91 550,-102.74 550,-102.74 550,-110.41 550,-110.41 550,-114.24 546.17,-118.07 542.33,-118.07"/>
<text text-anchor="middle" x="469" y="-102.87" font-family="Arial" font-size="14.00" fill="#ff6c60">src/otherJS/tabEvents.js</text>
</g>
<!-- src/otherJS/DOM.js&#45;&gt;src/otherJS/tabEvents.js -->
<g id="edge4" class="edge">
<title>src/otherJS/DOM.js&#45;&gt;src/otherJS/tabEvents.js</title>
<path fill="none" stroke="#757575" d="M135.37,-101.38C201.77,-99.51 304.03,-99.33 377.63,-100.82"/>
<polygon fill="#757575" stroke="#757575" points="377.75,-104.32 387.82,-101.04 377.9,-97.32 377.75,-104.32"/>
</g>
<!-- src/otherJS/default.js&#45;&gt;src/otherJS/DOM.js -->
<g id="edge5" class="edge">
<title>src/otherJS/default.js&#45;&gt;src/otherJS/DOM.js</title>
<path fill="none" stroke="#757575" d="M644.76,-99.15C625.54,-111.96 585.92,-129.86 550,-136.57 384.42,-167.51 338.42,-157.13 171,-138.57 144.95,-135.69 115.84,-128.79 95.32,-121.71"/>
<polygon fill="#757575" stroke="#757575" points="96.31,-118.34 85.71,-118.12 93.86,-124.9 96.31,-118.34"/>
</g>
<!-- src/otherJS/default.js&#45;&gt;src/otherJS/nonDOM.js -->
<g id="edge6" class="edge">
<title>src/otherJS/default.js&#45;&gt;src/otherJS/nonDOM.js</title>
<path fill="none" stroke="#757575" d="M688.97,-75.97C707.06,-71.03 731.01,-65.44 754.63,-60.51"/>
<polygon fill="#757575" stroke="#757575" points="755.62,-63.88 764.71,-58.44 754.21,-57.02 755.62,-63.88"/>
</g>
<!-- src/otherJS/modalEvents.js&#45;&gt;src/otherJS/DOM.js -->
<g id="edge7" class="edge">
<title>src/otherJS/modalEvents.js&#45;&gt;src/otherJS/DOM.js</title>
<path fill="none" stroke="#757575" d="M234.01,-69.17C211.06,-76.63 176.69,-86 145.21,-93.62"/>
<polygon fill="#757575" stroke="#757575" points="144.03,-90.31 135.11,-96.04 145.65,-97.12 144.03,-90.31"/>
</g>
<!-- src/otherJS/modalEvents.js&#45;&gt;src/otherJS/default.js -->
<g id="edge8" class="edge">
<title>src/otherJS/modalEvents.js&#45;&gt;src/otherJS/default.js</title>
<path fill="none" stroke="#757575" d="M352.4,-64.42C419.66,-69.54 510.86,-76.49 575.79,-81.43"/>
<polygon fill="#757575" stroke="#757575" points="575.75,-84.94 585.98,-82.21 576.28,-77.96 575.75,-84.94"/>
</g>
<!-- src/otherJS/modalEvents.js&#45;&gt;src/otherJS/nonDOM.js -->
<g id="edge9" class="edge">
<title>src/otherJS/modalEvents.js&#45;&gt;src/otherJS/nonDOM.js</title>
<path fill="none" stroke="#757575" d="M352.25,-56.18C461.7,-54.49 645.53,-51.64 754.43,-49.95"/>
<polygon fill="#757575" stroke="#757575" points="754.79,-53.44 764.74,-49.79 754.68,-46.44 754.79,-53.44"/>
</g>
<!-- src/otherJS/modalEvents.js&#45;&gt;src/otherJS/tabEvents.js -->
<g id="edge10" class="edge">
<title>src/otherJS/modalEvents.js&#45;&gt;src/otherJS/tabEvents.js</title>
<path fill="none" stroke="#757575" d="M338.15,-69.08C369.46,-76.04 404.4,-84.76 430.14,-92.18"/>
<polygon fill="#757575" stroke="#757575" points="429.3,-95.58 439.88,-95.05 431.28,-88.86 429.3,-95.58"/>
</g>
<!-- src/otherJS/nonDOM.js&#45;&gt;src/otherJS/default.js -->
<g id="edge11" class="edge">
<title>src/otherJS/nonDOM.js&#45;&gt;src/otherJS/default.js</title>
<path fill="none" stroke="#757575" d="M812.52,-60.19C792.4,-65.68 765.04,-71.97 738.96,-77.27"/>
<polygon fill="#757575" stroke="#757575" points="738.16,-73.86 729.04,-79.24 739.53,-80.72 738.16,-73.86"/>
</g>
<!-- src/otherJS/tabEvents.js&#45;&gt;src/otherJS/DOM.js -->
<g id="edge12" class="edge">
<title>src/otherJS/tabEvents.js&#45;&gt;src/otherJS/DOM.js</title>
<path fill="none" stroke="#757575" d="M387.82,-112.11C317.2,-113.76 215.02,-113.73 145.4,-112.03"/>
<polygon fill="#757575" stroke="#757575" points="145.46,-108.53 135.37,-111.77 145.27,-115.53 145.46,-108.53"/>
</g>
<!-- src/otherJS/tabEvents.js&#45;&gt;src/otherJS/default.js -->
<g id="edge13" class="edge">
<title>src/otherJS/tabEvents.js&#45;&gt;src/otherJS/default.js</title>
<path fill="none" stroke="#757575" d="M550.18,-98.41C558.6,-97.55 567.17,-96.68 575.6,-95.82"/>
<polygon fill="#757575" stroke="#757575" points="576.2,-99.27 585.79,-94.78 575.49,-92.31 576.2,-99.27"/>
</g>
<!-- src/otherJS/tabEvents.js&#45;&gt;src/otherJS/modalEvents.js -->
<g id="edge14" class="edge">
<title>src/otherJS/tabEvents.js&#45;&gt;src/otherJS/modalEvents.js</title>
<path fill="none" stroke="#757575" d="M392.01,-95C360.78,-88.05 325.99,-79.36 300.34,-71.97"/>
<polygon fill="#757575" stroke="#757575" points="301.23,-68.58 290.64,-69.1 299.24,-75.29 301.23,-68.58"/>
</g>
</g>
</svg>
